<svg xmlns="http://www.w3.org/2000/svg" width="320" height="352" viewBox="0 0 320 352"><title>Achievement/Card / legendary</title><rect x="0" y="0" width="320" height="352" rx="2" fill="#101210" stroke="#32372E" stroke-width="1" opacity="1"/><svg xmlns="http://www.w3.org/2000/svg" width="84" height="84" viewBox="0 0 128 128" x="20" y="20"><g id="glyph-Achievement-02"><path d="M47 22A45 45 0 0 1 108 64H84A21 21 0 0 0 56 44" stroke="#F5F5EF" stroke-width="5" fill="none" stroke-linecap="butt" stroke-linejoin="miter" /><path d="M81 106A45 45 0 0 1 20 64H44A21 21 0 0 0 72 84" stroke="#C4FF00" stroke-width="5" fill="none" stroke-linecap="butt" stroke-linejoin="miter" /><circle cx="64" cy="64" r="7" stroke="none" stroke-width="0" fill="#4433EE" /><path d="M22 22 33 33M95 95 106 106" stroke="#F5F5EF" stroke-width="4" fill="none" stroke-linecap="butt" stroke-linejoin="miter" /></g></svg><rect x="182" y="24" width="118" height="26" rx="2" fill="none" stroke="#E9D774" stroke-width="1" opacity="1"/><text x="194" y="42" font-family="IBM Plex Mono, monospace" font-size="11" font-weight="400" fill="#E9D774">ЛЕГЕНДАРНОЕ</text><text x="20" y="142" font-family="Inter, Arial, sans-serif" font-size="20" font-weight="500" fill="#F5F5EF">Первая задача</text><text x="20" y="175.0" font-family="Inter, Arial, sans-serif" font-size="14" font-weight="400" fill="#A6A6A0">Решите первую задачу и получите</text><text x="20" y="196.0" font-family="Inter, Arial, sans-serif" font-size="14" font-weight="400" fill="#A6A6A0">подтверждённый результат.</text><text x="20" y="244" font-family="Inter, Arial, sans-serif" font-size="14" font-weight="500" fill="#C4FF00">+25 XP</text><g transform="translate(20 276) scale(0.8333333333333334)"><path d="M4 12L9 17L20 6" fill="none" stroke="#C4FF00" stroke-width="2" stroke-linecap="square" stroke-linejoin="miter"/></g><text x="50" y="292" font-family="Inter, Arial, sans-serif" font-size="12" font-weight="400" fill="#A6A6A0">Получено 09.09.2026</text></svg>