<svg xmlns="http://www.w3.org/2000/svg" width="640" height="300" viewBox="0 0 640 300"><g id="Foundation-18"><rect x="0" y="0" width="640" height="300" fill="#0a0a0a" opacity="1"/></g><g id="Specimen-18-Algorithms"><path d="M334 37 L439.09 220.06 L228.91 220.06 Z" fill="none" stroke="#c4ff00" stroke-width="0.85" opacity="0.9" stroke-linejoin="round"/><path d="M334 39.26 L383.39 125.3 L284.61 125.3 Z" fill="none" stroke="#c4ff00" stroke-width="0.85" opacity="0.9" stroke-linejoin="round"/><path d="M334 40.32 L357.21 80.76 L310.79 80.76 Z" fill="none" stroke="#c4ff00" stroke-width="0.85" opacity="0.9" stroke-linejoin="round"/><path d="M334 40.82 L344.91 59.83 L323.09 59.83 Z" fill="none" stroke="#f5f5ef" stroke-width="0.85" opacity="0.55" stroke-linejoin="round"/><path d="M345.84 61.44 L356.75 80.45 L334.93 80.45 Z" fill="none" stroke="#f5f5ef" stroke-width="0.85" opacity="0.55" stroke-linejoin="round"/><path d="M322.16 61.44 L333.07 80.45 L311.25 80.45 Z" fill="none" stroke="#f5f5ef" stroke-width="0.85" opacity="0.55" stroke-linejoin="round"/><path d="M359.19 84.2 L382.4 124.64 L335.98 124.64 Z" fill="none" stroke="#c4ff00" stroke-width="0.85" opacity="0.9" stroke-linejoin="round"/><path d="M359.19 84.7 L370.1 103.71 L348.28 103.71 Z" fill="none" stroke="#f5f5ef" stroke-width="0.85" opacity="0.55" stroke-linejoin="round"/><path d="M371.03 105.32 L381.94 124.33 L360.12 124.33 Z" fill="none" stroke="#f5f5ef" stroke-width="0.85" opacity="0.55" stroke-linejoin="round"/><path d="M347.35 105.32 L358.26 124.33 L336.44 124.33 Z" fill="none" stroke="#f5f5ef" stroke-width="0.85" opacity="0.55" stroke-linejoin="round"/><path d="M308.81 84.2 L332.02 124.64 L285.6 124.64 Z" fill="none" stroke="#c4ff00" stroke-width="0.85" opacity="0.9" stroke-linejoin="round"/><path d="M308.81 84.7 L319.72 103.71 L297.9 103.71 Z" fill="none" stroke="#f5f5ef" stroke-width="0.85" opacity="0.55" stroke-linejoin="round"/><path d="M320.65 105.32 L331.56 124.33 L309.74 124.33 Z" fill="none" stroke="#f5f5ef" stroke-width="0.85" opacity="0.55" stroke-linejoin="round"/><path d="M296.97 105.32 L307.88 124.33 L286.06 124.33 Z" fill="none" stroke="#f5f5ef" stroke-width="0.85" opacity="0.55" stroke-linejoin="round"/><path d="M387.6 132.62 L436.99 218.66 L338.2 218.66 Z" fill="none" stroke="#c4ff00" stroke-width="0.85" opacity="0.9" stroke-linejoin="round"/><path d="M387.6 133.68 L410.81 174.12 L364.38 174.12 Z" fill="none" stroke="#c4ff00" stroke-width="0.85" opacity="0.9" stroke-linejoin="round"/><path d="M387.6 134.18 L398.51 153.19 L376.69 153.19 Z" fill="none" stroke="#f5f5ef" stroke-width="0.85" opacity="0.55" stroke-linejoin="round"/><path d="M399.44 154.81 L410.35 173.81 L388.52 173.81 Z" fill="none" stroke="#f5f5ef" stroke-width="0.85" opacity="0.55" stroke-linejoin="round"/><path d="M375.76 154.81 L386.67 173.81 L364.85 173.81 Z" fill="none" stroke="#f5f5ef" stroke-width="0.85" opacity="0.55" stroke-linejoin="round"/><path d="M412.79 177.56 L436 218 L389.57 218 Z" fill="none" stroke="#c4ff00" stroke-width="0.85" opacity="0.9" stroke-linejoin="round"/><path d="M412.79 178.06 L423.7 197.07 L401.88 197.07 Z" fill="none" stroke="#f5f5ef" stroke-width="0.85" opacity="0.55" stroke-linejoin="round"/><path d="M424.63 198.68 L435.54 217.69 L413.71 217.69 Z" fill="none" stroke="#f5f5ef" stroke-width="0.85" opacity="0.55" stroke-linejoin="round"/><path d="M400.95 198.68 L411.86 217.69 L390.04 217.69 Z" fill="none" stroke="#f5f5ef" stroke-width="0.85" opacity="0.55" stroke-linejoin="round"/><path d="M362.41 177.56 L385.62 218 L339.19 218 Z" fill="none" stroke="#c4ff00" stroke-width="0.85" opacity="0.9" stroke-linejoin="round"/><path d="M362.41 178.06 L373.32 197.07 L351.5 197.07 Z" fill="none" stroke="#f5f5ef" stroke-width="0.85" opacity="0.55" stroke-linejoin="round"/><path d="M374.25 198.68 L385.16 217.69 L363.33 217.69 Z" fill="none" stroke="#f5f5ef" stroke-width="0.85" opacity="0.55" stroke-linejoin="round"/><path d="M350.57 198.68 L361.48 217.69 L339.66 217.69 Z" fill="none" stroke="#f5f5ef" stroke-width="0.85" opacity="0.55" stroke-linejoin="round"/><path d="M280.4 132.62 L329.8 218.66 L231.01 218.66 Z" fill="none" stroke="#c4ff00" stroke-width="0.85" opacity="0.9" stroke-linejoin="round"/><path d="M280.4 133.68 L303.62 174.12 L257.19 174.12 Z" fill="none" stroke="#c4ff00" stroke-width="0.85" opacity="0.9" stroke-linejoin="round"/><path d="M280.4 134.18 L291.31 153.19 L269.49 153.19 Z" fill="none" stroke="#f5f5ef" stroke-width="0.85" opacity="0.55" stroke-linejoin="round"/><path d="M292.24 154.81 L303.15 173.81 L281.33 173.81 Z" fill="none" stroke="#f5f5ef" stroke-width="0.85" opacity="0.55" stroke-linejoin="round"/><path d="M268.56 154.81 L279.48 173.81 L257.65 173.81 Z" fill="none" stroke="#f5f5ef" stroke-width="0.85" opacity="0.55" stroke-linejoin="round"/><path d="M305.59 177.56 L328.81 218 L282.38 218 Z" fill="none" stroke="#c4ff00" stroke-width="0.85" opacity="0.9" stroke-linejoin="round"/><path d="M305.59 178.06 L316.5 197.07 L294.68 197.07 Z" fill="none" stroke="#f5f5ef" stroke-width="0.85" opacity="0.55" stroke-linejoin="round"/><path d="M317.43 198.68 L328.34 217.69 L306.52 217.69 Z" fill="none" stroke="#f5f5ef" stroke-width="0.85" opacity="0.55" stroke-linejoin="round"/><path d="M293.75 198.68 L304.67 217.69 L282.84 217.69 Z" fill="none" stroke="#f5f5ef" stroke-width="0.85" opacity="0.55" stroke-linejoin="round"/><path d="M255.21 177.56 L278.43 218 L232 218 Z" fill="none" stroke="#c4ff00" stroke-width="0.85" opacity="0.9" stroke-linejoin="round"/><path d="M255.21 178.06 L266.12 197.07 L244.3 197.07 Z" fill="none" stroke="#f5f5ef" stroke-width="0.85" opacity="0.55" stroke-linejoin="round"/><path d="M267.05 198.68 L277.96 217.69 L256.14 217.69 Z" fill="none" stroke="#f5f5ef" stroke-width="0.85" opacity="0.55" stroke-linejoin="round"/><path d="M243.37 198.68 L254.29 217.69 L232.46 217.69 Z" fill="none" stroke="#f5f5ef" stroke-width="0.85" opacity="0.55" stroke-linejoin="round"/><path d="M222 220 L334 37 L439 220" fill="none" stroke="#4433ee" stroke-width="0.8" opacity="0.5" stroke-linejoin="round"/><path d="M226 223 L338 40 L443 223" fill="none" stroke="#4433ee" stroke-width="0.8" opacity="0.5" stroke-linejoin="round"/><path d="M230 226 L342 43 L447 226" fill="none" stroke="#4433ee" stroke-width="0.8" opacity="0.5" stroke-linejoin="round"/><path d="M234 229 L346 46 L451 229" fill="none" stroke="#4433ee" stroke-width="0.8" opacity="0.5" stroke-linejoin="round"/><path d="M238 232 L350 49 L455 232" fill="none" stroke="#4433ee" stroke-width="0.8" opacity="0.5" stroke-linejoin="round"/><path d="M242 235 L354 52 L459 235" fill="none" stroke="#4433ee" stroke-width="0.8" opacity="0.5" stroke-linejoin="round"/><path d="M246 238 L358 55 L463 238" fill="none" stroke="#4433ee" stroke-width="0.8" opacity="0.5" stroke-linejoin="round"/><path d="M250 241 L362 58 L467 241" fill="none" stroke="#4433ee" stroke-width="0.8" opacity="0.5" stroke-linejoin="round"/></g><g id="Notation-18"><path d="M22 42V22h24M594 22h24v20M618 258v20h-24M46 278H22v-20" fill="none" stroke="#f5f5ef" stroke-width="0.8" opacity="0.32" stroke-linejoin="round"/><path d="M76 229h12M82 223v12" fill="none" stroke="#c4ff00" stroke-width="0.8" opacity="1" stroke-linejoin="round"/><path d="M553 71h10M558 66v10" fill="none" stroke="#f5f5ef" stroke-width="0.8" opacity="0.7" stroke-linejoin="round"/><rect x="55" y="37" width="1" height="12" fill="#f5f5ef" opacity="0.65"/><rect x="58" y="37" width="3" height="12" fill="#f5f5ef" opacity="0.65"/><rect x="63" y="37" width="1" height="12" fill="#f5f5ef" opacity="0.65"/><rect x="66" y="37" width="2" height="12" fill="#f5f5ef" opacity="0.65"/><rect x="70" y="37" width="4" height="9" fill="#f5f5ef" opacity="0.65"/><rect x="76" y="37" width="1" height="12" fill="#f5f5ef" opacity="0.65"/><rect x="79" y="37" width="1" height="12" fill="#f5f5ef" opacity="0.65"/><rect x="82" y="37" width="2" height="12" fill="#f5f5ef" opacity="0.65"/><rect x="86" y="37" width="1" height="12" fill="#f5f5ef" opacity="0.65"/><rect x="89" y="37" width="3" height="12" fill="#f5f5ef" opacity="0.65"/><rect x="94" y="37" width="2" height="12" fill="#f5f5ef" opacity="0.65"/><rect x="98" y="37" width="1" height="12" fill="#f5f5ef" opacity="0.65"/><rect x="555" y="42" width="3" height="3" fill="#c4ff00" opacity="0.85"/><rect x="561" y="42" width="3" height="3" fill="#c4ff00" opacity="0.85"/><rect x="567" y="42" width="3" height="3" fill="#c4ff00" opacity="0.85"/><rect x="558" y="45" width="3" height="3" fill="#c4ff00" opacity="0.85"/><rect x="564" y="45" width="3" height="3" fill="#c4ff00" opacity="0.85"/><rect x="570" y="45" width="3" height="3" fill="#c4ff00" opacity="0.85"/><rect x="555" y="48" width="3" height="3" fill="#c4ff00" opacity="0.85"/><rect x="561" y="48" width="3" height="3" fill="#c4ff00" opacity="0.85"/><rect x="567" y="48" width="3" height="3" fill="#c4ff00" opacity="0.85"/><rect x="558" y="51" width="3" height="3" fill="#c4ff00" opacity="0.85"/><rect x="564" y="51" width="3" height="3" fill="#c4ff00" opacity="0.85"/><rect x="570" y="51" width="3" height="3" fill="#c4ff00" opacity="0.85"/><path d="M500 185h25l18 18h52" fill="none" stroke="#f5f5ef" stroke-width="0.65" opacity="0.28" stroke-linejoin="round"/><circle cx="69" cy="171" r="0.7" fill="#4433ee" stroke="#4433ee" stroke-width="0.5" opacity="0.7"/><circle cx="76" cy="171" r="0.7" fill="#4433ee" stroke="#4433ee" stroke-width="0.5" opacity="0.7"/><circle cx="83" cy="171" r="0.7" fill="#4433ee" stroke="#4433ee" stroke-width="0.5" opacity="0.7"/><circle cx="90" cy="171" r="0.7" fill="#4433ee" stroke="#4433ee" stroke-width="0.5" opacity="0.7"/><circle cx="97" cy="171" r="0.7" fill="#4433ee" stroke="#4433ee" stroke-width="0.5" opacity="0.7"/><circle cx="69" cy="178" r="0.7" fill="#4433ee" stroke="#4433ee" stroke-width="0.5" opacity="0.7"/><circle cx="76" cy="178" r="0.7" fill="#4433ee" stroke="#4433ee" stroke-width="0.5" opacity="0.7"/><circle cx="83" cy="178" r="0.7" fill="#4433ee" stroke="#4433ee" stroke-width="0.5" opacity="0.7"/><circle cx="90" cy="178" r="0.7" fill="#4433ee" stroke="#4433ee" stroke-width="0.5" opacity="0.7"/><circle cx="97" cy="178" r="0.7" fill="#4433ee" stroke="#4433ee" stroke-width="0.5" opacity="0.7"/><circle cx="69" cy="185" r="0.7" fill="#4433ee" stroke="#4433ee" stroke-width="0.5" opacity="0.7"/><circle cx="76" cy="185" r="0.7" fill="#4433ee" stroke="#4433ee" stroke-width="0.5" opacity="0.7"/><circle cx="83" cy="185" r="0.7" fill="#4433ee" stroke="#4433ee" stroke-width="0.5" opacity="0.7"/><circle cx="90" cy="185" r="0.7" fill="#4433ee" stroke="#4433ee" stroke-width="0.5" opacity="0.7"/><circle cx="97" cy="185" r="0.7" fill="#4433ee" stroke="#4433ee" stroke-width="0.5" opacity="0.7"/><circle cx="69" cy="192" r="0.7" fill="#4433ee" stroke="#4433ee" stroke-width="0.5" opacity="0.7"/><circle cx="76" cy="192" r="0.7" fill="#4433ee" stroke="#4433ee" stroke-width="0.5" opacity="0.7"/><circle cx="83" cy="192" r="0.7" fill="#4433ee" stroke="#4433ee" stroke-width="0.5" opacity="0.7"/><circle cx="90" cy="192" r="0.7" fill="#4433ee" stroke="#4433ee" stroke-width="0.5" opacity="0.7"/><circle cx="97" cy="192" r="0.7" fill="#4433ee" stroke="#4433ee" stroke-width="0.5" opacity="0.7"/></g></svg>